<svg xmlns="http://www.w3.org/2000/svg" xmlns:xlink="http://www.w3.org/1999/xlink" width="300" zoomAndPan="magnify" viewBox="0 0 224.87999 74.999997" height="100" preserveAspectRatio="xMidYMid meet" version="1.0"><defs><g/><clipPath id="436fd4aa51"><path d="M 0 0.0195312 L 224.761719 0.0195312 L 224.761719 74.980469 L 0 74.980469 Z M 0 0.0195312 " clip-rule="nonzero"/></clipPath><clipPath id="9ace17e4da"><path d="M 0 5.371094 L 65 5.371094 L 65 69.738281 L 0 69.738281 Z M 0 5.371094 " clip-rule="nonzero"/></clipPath></defs><g clip-path="url(#436fd4aa51)"><path fill="#ffffff" d="M 0 0.0195312 L 224.878906 0.0195312 L 224.878906 74.980469 L 0 74.980469 Z M 0 0.0195312 " fill-opacity="1" fill-rule="nonzero"/><path fill="#ffffff" d="M 0 0.0195312 L 224.878906 0.0195312 L 224.878906 74.980469 L 0 74.980469 Z M 0 0.0195312 " fill-opacity="1" fill-rule="nonzero"/></g><g clip-path="url(#9ace17e4da)"><path fill="#ff6c10" d="M 14.507812 19.082031 C 14.726562 18.835938 14.921875 18.574219 15.089844 18.289062 C 15.257812 18.007812 15.398438 17.710938 15.511719 17.398438 C 15.625 17.089844 15.703125 16.773438 15.753906 16.445312 C 15.804688 16.121094 15.824219 15.792969 15.8125 15.464844 C 15.800781 15.132812 15.757812 14.808594 15.683594 14.488281 C 15.609375 14.167969 15.507812 13.855469 15.375 13.554688 C 15.238281 13.253906 15.078125 12.96875 14.890625 12.695312 C 14.699219 12.425781 14.488281 12.175781 14.25 11.945312 L 10.742188 8.4375 C 10.492188 8.1875 10.335938 7.886719 10.265625 7.539062 C 10.199219 7.191406 10.230469 6.855469 10.367188 6.527344 C 10.503906 6.199219 10.71875 5.9375 11.011719 5.742188 C 11.304688 5.542969 11.628906 5.445312 11.984375 5.445312 C 12.445312 5.433594 12.910156 5.453125 13.371094 5.5 C 13.832031 5.546875 14.289062 5.621094 14.742188 5.722656 C 15.195312 5.824219 15.640625 5.953125 16.078125 6.105469 C 16.515625 6.261719 16.941406 6.445312 17.355469 6.648438 C 17.769531 6.855469 18.171875 7.089844 18.558594 7.34375 C 18.945312 7.597656 19.316406 7.875 19.671875 8.175781 C 20.023438 8.476562 20.359375 8.796875 20.675781 9.136719 C 20.992188 9.476562 21.285156 9.835938 21.554688 10.210938 C 21.828125 10.585938 22.078125 10.976562 22.300781 11.382812 C 22.527344 11.789062 22.726562 12.207031 22.902344 12.636719 C 23.074219 13.066406 23.222656 13.503906 23.34375 13.953125 C 23.464844 14.398438 23.5625 14.851562 23.628906 15.3125 C 23.695312 15.769531 23.734375 16.234375 23.746094 16.695312 C 23.757812 17.160156 23.738281 17.621094 23.695312 18.085938 C 23.648438 18.546875 23.578125 19.003906 23.476562 19.457031 C 23.378906 19.910156 23.25 20.355469 23.097656 20.792969 L 32.472656 30.167969 L 28.0625 34.582031 L 26.46875 32.988281 C 26.113281 32.632812 25.707031 32.363281 25.246094 32.171875 C 24.789062 31.980469 24.308594 31.886719 23.808594 31.886719 C 23.3125 31.886719 22.832031 31.980469 22.371094 32.171875 C 21.910156 32.363281 21.503906 32.636719 21.152344 32.988281 L 21.125 33.015625 L 16.007812 27.898438 C 15.566406 28.054688 15.117188 28.179688 14.664062 28.28125 C 14.207031 28.378906 13.75 28.453125 13.285156 28.496094 C 12.820312 28.539062 12.355469 28.554688 11.890625 28.542969 C 11.421875 28.53125 10.960938 28.492188 10.5 28.421875 C 10.039062 28.355469 9.582031 28.257812 9.132812 28.136719 C 8.683594 28.011719 8.242188 27.863281 7.8125 27.6875 C 7.378906 27.507812 6.960938 27.308594 6.554688 27.078125 C 6.148438 26.851562 5.757812 26.601562 5.378906 26.324219 C 5.003906 26.050781 4.644531 25.753906 4.304688 25.433594 C 3.964844 25.117188 3.644531 24.777344 3.34375 24.421875 C 3.046875 24.066406 2.769531 23.691406 2.515625 23.300781 C 2.261719 22.910156 2.03125 22.503906 1.824219 22.085938 C 1.621094 21.667969 1.441406 21.238281 1.289062 20.796875 C 1.132812 20.355469 1.007812 19.910156 0.910156 19.453125 C 0.8125 19 0.738281 18.539062 0.695312 18.074219 C 0.652344 17.609375 0.640625 17.144531 0.652344 16.679688 C 0.667969 16.332031 0.78125 16.019531 0.984375 15.738281 C 1.1875 15.457031 1.449219 15.253906 1.773438 15.132812 C 2.097656 15.007812 2.429688 14.984375 2.769531 15.054688 C 3.105469 15.128906 3.398438 15.289062 3.640625 15.535156 L 7.300781 19.195312 C 7.539062 19.433594 7.796875 19.644531 8.078125 19.828125 C 8.359375 20.015625 8.65625 20.171875 8.964844 20.296875 C 9.277344 20.421875 9.597656 20.515625 9.929688 20.578125 C 10.257812 20.640625 10.59375 20.667969 10.929688 20.664062 C 11.265625 20.660156 11.597656 20.621094 11.925781 20.546875 C 12.253906 20.476562 12.570312 20.371094 12.878906 20.238281 C 13.1875 20.101562 13.476562 19.9375 13.75 19.742188 C 14.027344 19.546875 14.277344 19.328125 14.507812 19.082031 Z M 63.949219 61.34375 C 63.769531 62.007812 63.53125 62.648438 63.226562 63.265625 C 62.921875 63.882812 62.5625 64.464844 62.144531 65.007812 C 61.726562 65.554688 61.257812 66.054688 60.742188 66.507812 C 60.226562 66.960938 59.671875 67.359375 59.078125 67.703125 C 58.480469 68.046875 57.859375 68.332031 57.207031 68.550781 C 56.558594 68.773438 55.890625 68.929688 55.210938 69.019531 C 54.527344 69.109375 53.84375 69.128906 53.160156 69.085938 C 52.472656 69.039062 51.800781 68.929688 51.136719 68.75 C 50.472656 68.574219 49.832031 68.332031 49.214844 68.027344 C 48.597656 67.726562 48.019531 67.363281 47.472656 66.945312 C 46.929688 66.527344 46.429688 66.058594 45.976562 65.542969 C 45.523438 65.023438 45.125 64.46875 44.78125 63.875 C 44.4375 63.277344 44.15625 62.65625 43.9375 62.003906 C 43.714844 61.355469 43.5625 60.6875 43.472656 60.007812 C 43.382812 59.324219 43.359375 58.640625 43.40625 57.957031 C 43.453125 57.269531 43.5625 56.59375 43.742188 55.933594 C 43.761719 55.855469 43.792969 55.785156 43.816406 55.707031 L 36.730469 48.621094 L 36.757812 48.59375 C 37.109375 48.242188 37.378906 47.835938 37.570312 47.375 C 37.761719 46.914062 37.855469 46.433594 37.855469 45.933594 C 37.855469 45.4375 37.761719 44.957031 37.570312 44.496094 C 37.378906 44.035156 37.109375 43.628906 36.757812 43.277344 L 35.164062 41.683594 L 39.574219 37.269531 L 50.914062 48.609375 C 51.804688 48.347656 52.714844 48.207031 53.640625 48.1875 C 54.570312 48.167969 55.484375 48.269531 56.386719 48.492188 C 57.285156 48.71875 58.140625 49.054688 58.953125 49.507812 C 59.761719 49.960938 60.5 50.511719 61.164062 51.160156 C 61.828125 51.808594 62.394531 52.53125 62.863281 53.332031 C 63.335938 54.132812 63.691406 54.980469 63.9375 55.875 C 64.183594 56.769531 64.304688 57.679688 64.308594 58.609375 C 64.308594 59.539062 64.1875 60.449219 63.949219 61.34375 Z M 61.203125 56.667969 L 55.816406 51.28125 L 48.457031 53.253906 L 46.488281 60.609375 L 51.875 65.996094 L 59.230469 64.027344 Z M 64.097656 7.519531 C 64.210938 7.636719 64.28125 7.777344 64.300781 7.941406 C 64.316406 8.105469 64.285156 8.257812 64.195312 8.394531 L 58.03125 18.277344 C 57.914062 18.464844 57.746094 18.582031 57.527344 18.621094 L 53.953125 19.292969 L 31.5625 41.683594 L 34.957031 45.078125 C 35.070312 45.191406 35.15625 45.320312 35.21875 45.46875 C 35.28125 45.621094 35.3125 45.773438 35.3125 45.933594 C 35.3125 46.097656 35.28125 46.25 35.21875 46.398438 C 35.15625 46.546875 35.070312 46.679688 34.957031 46.792969 L 33.726562 48.023438 C 33.566406 48.175781 33.375 48.261719 33.15625 48.285156 C 32.9375 48.308594 32.730469 48.261719 32.542969 48.144531 C 32.273438 47.988281 31.988281 47.882812 31.683594 47.824219 C 31.378906 47.765625 31.074219 47.757812 30.765625 47.800781 C 30.460938 47.839844 30.167969 47.929688 29.890625 48.070312 C 29.613281 48.207031 29.363281 48.382812 29.144531 48.601562 C 28.925781 48.820312 28.746094 49.070312 28.609375 49.347656 C 28.472656 49.625 28.382812 49.917969 28.339844 50.226562 C 28.300781 50.53125 28.308594 50.835938 28.367188 51.140625 C 28.425781 51.445312 28.53125 51.730469 28.683594 52 C 28.800781 52.1875 28.847656 52.394531 28.828125 52.613281 C 28.804688 52.832031 28.71875 53.023438 28.566406 53.183594 L 15.140625 66.609375 C 14.746094 67.007812 14.316406 67.359375 13.851562 67.667969 C 13.390625 67.980469 12.898438 68.242188 12.386719 68.453125 C 11.871094 68.667969 11.339844 68.832031 10.792969 68.941406 C 10.246094 69.046875 9.691406 69.101562 9.132812 69.105469 C 8.578125 69.105469 8.023438 69.050781 7.476562 68.941406 C 6.929688 68.832031 6.398438 68.671875 5.882812 68.457031 C 5.367188 68.246094 4.878906 67.984375 4.414062 67.671875 C 3.949219 67.363281 3.523438 67.011719 3.128906 66.617188 C 2.734375 66.222656 2.382812 65.792969 2.070312 65.328125 C 1.761719 64.867188 1.5 64.375 1.285156 63.859375 C 1.074219 63.347656 0.914062 62.816406 0.804688 62.265625 C 0.695312 61.71875 0.640625 61.167969 0.640625 60.609375 C 0.640625 60.050781 0.695312 59.5 0.804688 58.953125 C 0.914062 58.40625 1.074219 57.875 1.289062 57.359375 C 1.503906 56.84375 1.765625 56.355469 2.074219 55.890625 C 2.386719 55.429688 2.738281 55 3.132812 54.605469 L 16.558594 41.179688 C 16.71875 41.027344 16.910156 40.941406 17.132812 40.917969 C 17.351562 40.894531 17.554688 40.941406 17.742188 41.058594 C 18.011719 41.214844 18.300781 41.320312 18.605469 41.378906 C 18.90625 41.4375 19.214844 41.445312 19.519531 41.402344 C 19.828125 41.363281 20.121094 41.273438 20.398438 41.132812 C 20.675781 40.996094 20.921875 40.820312 21.140625 40.601562 C 21.359375 40.378906 21.539062 40.132812 21.675781 39.855469 C 21.8125 39.578125 21.902344 39.285156 21.945312 38.976562 C 21.988281 38.671875 21.976562 38.367188 21.917969 38.0625 C 21.859375 37.757812 21.753906 37.472656 21.601562 37.203125 C 21.484375 37.011719 21.4375 36.808594 21.460938 36.589844 C 21.480469 36.367188 21.570312 36.179688 21.722656 36.019531 L 22.949219 34.789062 C 23.066406 34.675781 23.195312 34.585938 23.34375 34.523438 C 23.492188 34.464844 23.648438 34.433594 23.808594 34.433594 C 23.96875 34.433594 24.125 34.464844 24.273438 34.523438 C 24.421875 34.585938 24.554688 34.675781 24.667969 34.789062 L 28.0625 38.183594 L 50.449219 15.792969 L 51.125 12.214844 C 51.164062 12 51.277344 11.832031 51.464844 11.714844 L 61.347656 5.546875 C 61.488281 5.460938 61.640625 5.425781 61.804688 5.445312 C 61.96875 5.464844 62.109375 5.53125 62.222656 5.648438 L 63.160156 6.585938 Z M 4.78125 62.964844 L 20.160156 47.585938 L 17.65625 45.085938 L 5.632812 57.105469 C 5.257812 57.484375 4.949219 57.910156 4.710938 58.386719 C 4.472656 58.863281 4.3125 59.367188 4.234375 59.894531 C 4.160156 60.421875 4.167969 60.949219 4.257812 61.472656 C 4.351562 62 4.527344 62.496094 4.78125 62.964844 Z M 24.660156 52.089844 L 22.160156 49.585938 L 6.78125 64.964844 C 7.25 65.21875 7.746094 65.390625 8.273438 65.484375 C 8.796875 65.578125 9.324219 65.585938 9.851562 65.507812 C 10.378906 65.433594 10.882812 65.273438 11.359375 65.035156 C 11.835938 64.796875 12.261719 64.488281 12.640625 64.109375 Z M 24.660156 52.089844 " fill-opacity="1" fill-rule="nonzero"/></g><g fill="#000000" fill-opacity="1"><g transform="translate(69.758807, 50.47015)"><g><path d="M 0.421875 -37.328125 L 18.5625 -37.328125 L 18.5625 -32 L 12.421875 -32 L 12.421875 0 L 6.5625 0 L 6.5625 -32 L 0.421875 -32 Z M 0.421875 -37.328125 "/></g></g></g><g fill="#000000" fill-opacity="1"><g transform="translate(90.340689, 50.47015)"><g><path d="M 7.515625 -8.578125 C 7.515625 -7.234375 7.789062 -6.285156 8.34375 -5.734375 C 8.894531 -5.179688 9.632812 -4.90625 10.5625 -4.90625 C 11.488281 -4.90625 12.222656 -5.179688 12.765625 -5.734375 C 13.316406 -6.285156 13.59375 -7.234375 13.59375 -8.578125 L 13.59375 -28.75 C 13.59375 -30.09375 13.316406 -31.039062 12.765625 -31.59375 C 12.222656 -32.144531 11.488281 -32.421875 10.5625 -32.421875 C 9.632812 -32.421875 8.894531 -32.144531 8.34375 -31.59375 C 7.789062 -31.039062 7.515625 -30.09375 7.515625 -28.75 Z M 1.65625 -28.375 C 1.65625 -31.394531 2.414062 -33.710938 3.9375 -35.328125 C 5.46875 -36.941406 7.675781 -37.75 10.5625 -37.75 C 13.4375 -37.75 15.640625 -36.941406 17.171875 -35.328125 C 18.703125 -33.710938 19.46875 -31.394531 19.46875 -28.375 L 19.46875 -8.953125 C 19.46875 -5.929688 18.703125 -3.613281 17.171875 -2 C 15.640625 -0.382812 13.4375 0.421875 10.5625 0.421875 C 7.675781 0.421875 5.46875 -0.382812 3.9375 -2 C 2.414062 -3.613281 1.65625 -5.929688 1.65625 -8.953125 Z M 1.65625 -28.375 "/></g></g></g><g fill="#000000" fill-opacity="1"><g transform="translate(113.055365, 50.47015)"><g><path d="M 7.515625 -8.578125 C 7.515625 -7.234375 7.789062 -6.285156 8.34375 -5.734375 C 8.894531 -5.179688 9.632812 -4.90625 10.5625 -4.90625 C 11.488281 -4.90625 12.222656 -5.179688 12.765625 -5.734375 C 13.316406 -6.285156 13.59375 -7.234375 13.59375 -8.578125 L 13.59375 -28.75 C 13.59375 -30.09375 13.316406 -31.039062 12.765625 -31.59375 C 12.222656 -32.144531 11.488281 -32.421875 10.5625 -32.421875 C 9.632812 -32.421875 8.894531 -32.144531 8.34375 -31.59375 C 7.789062 -31.039062 7.515625 -30.09375 7.515625 -28.75 Z M 1.65625 -28.375 C 1.65625 -31.394531 2.414062 -33.710938 3.9375 -35.328125 C 5.46875 -36.941406 7.675781 -37.75 10.5625 -37.75 C 13.4375 -37.75 15.640625 -36.941406 17.171875 -35.328125 C 18.703125 -33.710938 19.46875 -31.394531 19.46875 -28.375 L 19.46875 -8.953125 C 19.46875 -5.929688 18.703125 -3.613281 17.171875 -2 C 15.640625 -0.382812 13.4375 0.421875 10.5625 0.421875 C 7.675781 0.421875 5.46875 -0.382812 3.9375 -2 C 2.414062 -3.613281 1.65625 -5.929688 1.65625 -8.953125 Z M 1.65625 -28.375 "/></g></g></g><g fill="#000000" fill-opacity="1"><g transform="translate(135.770042, 50.47015)"><g><path d="M 2.140625 -37.328125 L 8 -37.328125 L 8 -5.328125 L 17.65625 -5.328125 L 17.65625 0 L 2.140625 0 Z M 2.140625 -37.328125 "/></g></g></g><g fill="#000000" fill-opacity="1"><g transform="translate(155.445482, 50.47015)"><g><path d="M 2.140625 -37.328125 L 8 -37.328125 L 8 0 L 2.140625 0 Z M 2.140625 -37.328125 "/></g></g></g><g fill="#000000" fill-opacity="1"><g transform="translate(167.176248, 50.47015)"><g><path d="M 21.703125 -37.328125 L 15.578125 -19.203125 L 22.125 0 L 15.9375 0 L 11.140625 -14.765625 L 6.296875 0 L 0.796875 0 L 7.359375 -19.203125 L 1.21875 -37.328125 L 7.3125 -37.328125 L 11.734375 -23.578125 L 16.265625 -37.328125 Z M 21.703125 -37.328125 "/></g></g></g><g fill="#000000" fill-opacity="1"><g transform="translate(191.703809, 50.47015)"><g><path d="M 2.140625 -37.328125 L 8 -37.328125 L 8 0 L 2.140625 0 Z M 2.140625 -37.328125 "/></g></g></g><g fill="#000000" fill-opacity="1"><g transform="translate(203.434569, 50.47015)"><g><path d="M 14.40625 0 C 14.332031 -0.25 14.257812 -0.476562 14.1875 -0.6875 C 14.113281 -0.90625 14.050781 -1.171875 14 -1.484375 C 13.945312 -1.804688 13.910156 -2.21875 13.890625 -2.71875 C 13.867188 -3.21875 13.859375 -3.84375 13.859375 -4.59375 L 13.859375 -10.453125 C 13.859375 -12.191406 13.554688 -13.414062 12.953125 -14.125 C 12.347656 -14.84375 11.375 -15.203125 10.03125 -15.203125 L 8 -15.203125 L 8 0 L 2.140625 0 L 2.140625 -37.328125 L 10.984375 -37.328125 C 14.046875 -37.328125 16.257812 -36.613281 17.625 -35.1875 C 18.988281 -33.769531 19.671875 -31.625 19.671875 -28.75 L 19.671875 -25.8125 C 19.671875 -21.96875 18.394531 -19.441406 15.84375 -18.234375 C 17.332031 -17.628906 18.351562 -16.640625 18.90625 -15.265625 C 19.457031 -13.898438 19.734375 -12.242188 19.734375 -10.296875 L 19.734375 -4.53125 C 19.734375 -3.601562 19.765625 -2.789062 19.828125 -2.09375 C 19.898438 -1.40625 20.082031 -0.707031 20.375 0 Z M 8 -32 L 8 -20.53125 L 10.296875 -20.53125 C 11.398438 -20.53125 12.257812 -20.8125 12.875 -21.375 C 13.5 -21.945312 13.8125 -22.984375 13.8125 -24.484375 L 13.8125 -28.15625 C 13.8125 -29.507812 13.570312 -30.488281 13.09375 -31.09375 C 12.613281 -31.695312 11.859375 -32 10.828125 -32 Z M 8 -32 "/></g></g></g></svg>